<svg width="48" height="48" viewBox="0 0 48 48" fill="none" xmlns="http://www.w3.org/2000/svg">
<rect width="48" height="48" rx="10" fill="#F08E70"/>
<g clip-path="url(#clip0_107_3)">
<path d="M37.3969 17.2664C37.3409 17.1551 37.2431 17.0706 37.1248 17.0315C37.0066 16.9924 36.8777 17.0019 36.7664 17.0578C36.6551 17.1137 36.5706 17.2116 36.5315 17.3298C36.4924 17.4481 36.5019 17.577 36.5578 17.6883C38.0133 20.583 38.4245 23.8915 37.722 27.0545C37.0194 30.2175 35.2462 33.0408 32.7022 35.0472C30.1581 37.0536 26.9992 38.1199 23.7596 38.0659C20.52 38.0119 17.3984 36.8408 14.9227 34.7508H17.032C17.1563 34.7508 17.2756 34.7014 17.3635 34.6135C17.4514 34.5256 17.5008 34.4063 17.5008 34.282C17.5008 34.1577 17.4514 34.0385 17.3635 33.9506C17.2756 33.8627 17.1563 33.8133 17.032 33.8133H13.7156C13.6853 33.8098 13.6546 33.8098 13.6242 33.8133H13.5867L13.5375 33.8273L13.493 33.8508C13.48 33.8569 13.4674 33.8639 13.4555 33.8719C13.4042 33.9056 13.3603 33.9495 13.3266 34.0008C13.3194 34.012 13.3131 34.0237 13.3078 34.0359C13.2981 34.0505 13.2903 34.0663 13.2844 34.0828C13.2775 34.0979 13.272 34.1136 13.268 34.1297C13.268 34.1437 13.268 34.1555 13.2562 34.1695C13.2539 34.1999 13.2539 34.2305 13.2562 34.2609V37.5937C13.2562 37.7181 13.3056 37.8373 13.3935 37.9252C13.4814 38.0131 13.6007 38.0625 13.725 38.0625C13.8493 38.0625 13.9685 38.0131 14.0565 37.9252C14.1444 37.8373 14.1937 37.7181 14.1937 37.5937V35.3508C16.8204 37.6161 20.151 38.9011 23.6186 38.987C27.0861 39.0729 30.4763 37.9545 33.2119 35.8221C35.9476 33.6896 37.8597 30.675 38.6227 27.2914C39.3857 23.9077 38.9525 20.3642 37.3969 17.264V17.2664Z" fill="white"/>
<path d="M14.0649 14.0461C16.5592 11.5589 19.8952 10.0971 23.4145 9.94913C26.9338 9.80117 30.3808 10.9778 33.075 13.2468H30.9657C30.8413 13.2468 30.7221 13.2962 30.6342 13.3841C30.5463 13.472 30.4969 13.5913 30.4969 13.7156C30.4969 13.8399 30.5463 13.9591 30.6342 14.0471C30.7221 14.135 30.8413 14.1843 30.9657 14.1843H34.2774C34.3085 14.1879 34.34 14.1879 34.3711 14.1843H34.4086L34.4578 14.1703L34.5 14.1468C34.5133 14.1412 34.5258 14.1341 34.5375 14.1258C34.5894 14.0919 34.634 14.0481 34.6688 13.9968L34.6875 13.9617L34.711 13.9148C34.717 13.8996 34.7217 13.884 34.725 13.8679L34.7391 13.8281C34.7414 13.7977 34.7414 13.7671 34.7391 13.7367V10.4062C34.7391 10.2819 34.6897 10.1627 34.6018 10.0748C34.5139 9.98686 34.3947 9.93747 34.2703 9.93747C34.146 9.93747 34.0268 9.98686 33.9389 10.0748C33.851 10.1627 33.8016 10.2819 33.8016 10.4062V12.6515C31.1761 10.3939 27.8504 9.11409 24.3888 9.02934C20.9271 8.94459 17.5428 10.0601 14.8099 12.1866C12.0771 14.313 10.1642 17.3195 9.3957 20.6958C8.62721 24.0722 9.05051 27.6104 10.5938 30.7101C10.6326 30.7882 10.6924 30.854 10.7665 30.8999C10.8406 30.9459 10.9261 30.9702 11.0133 30.9703C11.0857 30.9702 11.1571 30.9534 11.2219 30.9211C11.2771 30.8935 11.3262 30.8552 11.3666 30.8086C11.407 30.7619 11.4377 30.7077 11.4571 30.6491C11.4765 30.5906 11.4841 30.5287 11.4795 30.4672C11.475 30.4057 11.4583 30.3457 11.4305 30.2906C10.1053 27.6499 9.64658 24.6586 10.1195 21.7421C10.5925 18.8257 11.9731 16.1326 14.0649 14.0461Z" fill="white"/>
<path d="M29.7492 24.1078C30.0867 24.2262 30.4416 24.2872 30.7992 24.2883C31.5512 24.2816 32.2795 24.0243 32.8688 23.557C33.8461 22.8047 34.4274 21.6305 34.3453 20.5664C34.2884 19.9511 34.098 19.3556 33.7876 18.8213C33.4772 18.2871 33.054 17.8268 32.5477 17.4727C31.7578 16.9219 30.4008 16.3852 28.4133 16.9524C25.0805 17.9063 24.3844 21 24.2344 22.2586C24.1805 22.2586 24.1242 22.2586 24.068 22.2445C23.1305 21.2039 23.311 20.5242 24.1031 18.2602C24.2821 17.736 24.3254 17.175 24.2291 16.6295C24.1328 16.0841 23.9 15.5719 23.5524 15.1406C22.8047 14.1563 21.6305 13.5703 20.5664 13.6547C19.9511 13.7117 19.3556 13.902 18.8214 14.2124C18.2871 14.5229 17.8268 14.946 17.4727 15.4524C16.9219 16.2422 16.3852 17.5992 16.9524 19.5867C17.9063 22.9219 21.0047 23.6156 22.261 23.7656C22.261 23.8195 22.261 23.8735 22.2469 23.9297C21.2063 24.8672 20.5266 24.6891 18.2508 23.8969C17.7266 23.7179 17.1656 23.6746 16.6202 23.7709C16.0747 23.8672 15.5625 24.1 15.1313 24.4477C14.1539 25.2 13.5727 26.3742 13.6547 27.4383C13.7117 28.0536 13.902 28.6491 14.2124 29.1834C14.5229 29.7176 14.946 30.1779 15.4524 30.532C16.188 31.0379 17.0628 31.3025 17.9555 31.2891C18.5106 31.288 19.0629 31.2091 19.5961 31.0547C22.9266 30.0938 23.618 26.9883 23.7656 25.7344C23.8172 25.7344 23.8711 25.7344 23.925 25.7484C24.8625 26.7938 24.6914 27.4711 23.8969 29.7492C23.7179 30.2734 23.6746 30.8344 23.7709 31.3799C23.8672 31.9253 24.1 32.4375 24.4477 32.8688C24.7727 33.309 25.192 33.6709 25.675 33.928C26.158 34.1851 26.6924 34.3309 27.2391 34.3547C27.3054 34.3583 27.3719 34.3583 27.4383 34.3547C28.0536 34.2977 28.6491 34.1074 29.1834 33.797C29.7177 33.4865 30.1779 33.0634 30.532 32.557C31.0828 31.7672 31.6195 30.4102 31.0524 28.4227C30.0938 25.0758 26.9953 24.3844 25.7367 24.2344C25.7367 24.1805 25.7367 24.1266 25.7531 24.0703C26.7961 23.1375 27.4735 23.3156 29.7492 24.1078ZM28.6711 17.8547C29.9625 17.4844 31.118 17.6203 32.0133 18.2414C32.4073 18.5149 32.7371 18.8708 32.9799 19.2844C33.2227 19.698 33.3727 20.1594 33.4195 20.6367C33.4758 21.3844 33.0281 22.2586 32.3039 22.8141C31.9959 23.0669 31.6285 23.2371 31.2365 23.3084C30.8444 23.3798 30.4406 23.35 30.0633 23.2219C27.9844 22.4977 26.836 22.1039 25.5024 23.0789C25.4066 22.9245 25.2881 22.7854 25.1508 22.6664C25.1719 21.9867 25.5094 18.7594 28.6711 17.8547ZM24 23.1774C24.1623 23.1769 24.321 23.2246 24.4562 23.3143C24.5913 23.4041 24.6968 23.5319 24.7593 23.6816C24.8218 23.8313 24.8386 23.9962 24.8074 24.1554C24.7762 24.3146 24.6985 24.461 24.5841 24.5761C24.4697 24.6911 24.3237 24.7696 24.1647 24.8018C24.0057 24.8339 23.8407 24.8181 23.6906 24.7564C23.5405 24.6948 23.4121 24.59 23.3216 24.4554C23.2311 24.3207 23.1825 24.1623 23.182 24C23.1814 23.8922 23.2021 23.7853 23.243 23.6855C23.2838 23.5858 23.3439 23.495 23.42 23.4186C23.496 23.3421 23.5864 23.2815 23.6859 23.2401C23.7855 23.1987 23.8922 23.1774 24 23.1774ZM17.8547 19.3289C17.4844 18.0375 17.6203 16.882 18.2414 15.9867C18.5149 15.5928 18.8708 15.263 19.2844 15.0201C19.698 14.7773 20.1594 14.6273 20.6367 14.5805C21.3821 14.5242 22.2586 14.9719 22.8141 15.6961C23.0669 16.0041 23.2371 16.3715 23.3084 16.7636C23.3798 17.1556 23.35 17.5594 23.2219 17.9367C22.4977 20.0156 22.1039 21.1641 23.0789 22.4977C22.924 22.5927 22.7848 22.7113 22.6664 22.8492C21.9844 22.8281 18.7594 22.4906 17.8547 19.3289ZM19.3289 30.1453C18.0375 30.5156 16.8821 30.3797 15.9867 29.7586C15.5928 29.4851 15.263 29.1292 15.0201 28.7156C14.7773 28.302 14.6273 27.8406 14.5805 27.3633C14.5242 26.6156 14.9719 25.7414 15.6961 25.1859C16.0041 24.9331 16.3715 24.763 16.7636 24.6916C17.1556 24.6202 17.5594 24.65 17.9367 24.7781C20.018 25.5024 21.1664 25.8984 22.5024 24.9188C22.5964 25.0717 22.7134 25.2092 22.8492 25.3266C22.8281 25.9922 22.5 29.2383 19.3289 30.1453ZM30.1453 28.6711C30.5156 29.9625 30.3797 31.118 29.7586 32.0133C29.4851 32.4073 29.1292 32.7371 28.7156 32.9799C28.302 33.2227 27.8406 33.3727 27.3633 33.4195C26.618 33.4758 25.7414 33.0281 25.186 32.3039C24.9331 31.9959 24.763 31.6285 24.6916 31.2365C24.6202 30.8444 24.65 30.4406 24.7781 30.0633C25.5024 27.982 25.8985 26.8336 24.9188 25.4977C25.0717 25.4036 25.2092 25.2866 25.3266 25.1508C25.9899 25.1719 29.2383 25.4953 30.1453 28.6711Z" fill="white"/>
</g>
<defs>
<clipPath id="clip0_107_3">
<rect width="30" height="30" fill="white" transform="translate(9 9)"/>
</clipPath>
</defs>
</svg>
