<svg width="48" height="48" viewBox="0 0 48 48" fill="none" xmlns="http://www.w3.org/2000/svg">
<rect width="48" height="48" rx="10" fill="#F08E70"/>
<path d="M31.1732 11.3631C28.7417 9.38201 25.5407 8.59368 22.3927 9.19962C18.1547 10.0152 14.751 13.5521 14.1155 17.8008C13.5972 21.2678 14.8431 24.7303 17.4483 27.0634C18.6222 28.1145 19.3304 29.6285 19.4429 31.327C19.445 31.3578 19.4511 31.3875 19.4579 31.4169V36.7429C19.4579 37.0362 19.6983 37.2741 19.9952 37.2741H20.5308C20.7489 38.8179 21.8966 40 23.279 40H25.7184C27.1007 40 28.2481 38.8179 28.4662 37.2741H29.0017C29.2983 37.2741 29.5391 37.0362 29.5391 36.7429V31.3319C29.5391 31.3309 29.5394 31.3298 29.5394 31.3284C29.5394 29.7482 30.2652 28.2222 31.5834 27.0316C33.7549 25.0703 35 22.2807 35 19.3785C35.0004 16.2662 33.6055 13.3445 31.1732 11.3631ZM22.5987 21.4449H21.773C21.3177 21.4449 20.9474 21.0787 20.9474 20.6286C20.9474 20.1785 21.3177 19.8123 21.773 19.8123C22.2283 19.8123 22.5987 20.1785 22.5987 20.6286V21.4449ZM26.399 20.6286C26.399 20.1785 26.7694 19.8123 27.225 19.8123C27.6803 19.8123 28.0507 20.1785 28.0507 20.6286C28.0507 21.0787 27.6803 21.4449 27.225 21.4449H26.4001L26.399 20.6286ZM26.0755 31.8217H28.4648V36.2117H27.973C27.9719 36.2117 27.9708 36.2114 27.9694 36.2114C27.9679 36.2114 27.9672 36.2117 27.9658 36.2117H21.0315C21.0305 36.2117 21.0294 36.2114 21.0279 36.2114C21.0265 36.2114 21.0258 36.2117 21.0244 36.2117H20.5329V31.8217H25.679M23.6733 30.7593V22.5073H25.3272L25.3394 30.7593H23.6733ZM25.7184 38.9376H23.279C22.4773 38.9376 21.8042 38.2279 21.6179 37.2741H27.379C27.1931 38.2279 26.5201 38.9376 25.7184 38.9376ZM30.8587 26.2475C29.4717 27.5001 28.6507 29.0852 28.497 30.7593H26.4137L26.4018 22.5073H27.225C28.2728 22.5073 29.1253 21.6645 29.1253 20.6286C29.1253 19.5927 28.2728 18.7499 27.225 18.7499C26.1769 18.7499 25.3243 19.5927 25.3243 20.6293L25.3254 21.4449H23.6733V20.6286C23.6733 19.5927 22.8208 18.7499 21.773 18.7499C20.7253 18.7499 19.8727 19.5927 19.8727 20.6286C19.8727 21.6645 20.7253 22.5073 21.773 22.5073H22.5987V30.7593H20.4595C20.2316 28.9868 19.4335 27.4073 18.1694 26.2758C15.831 24.1814 14.7127 21.0713 15.1783 17.9559C15.7483 14.1453 18.7992 10.9735 22.5976 10.2422C25.4304 9.69755 28.3068 10.4044 30.489 12.1829C32.6727 13.9618 33.925 16.5846 33.925 19.3788C33.9257 21.9832 32.8077 24.487 30.8587 26.2475Z" fill="white"/>
</svg>
