<svg width="82" height="36" viewBox="0 0 82 36" fill="none" xmlns="http://www.w3.org/2000/svg">
<rect x="0.5" y="0.5" width="81" height="35" rx="6.5" stroke="black"/>
<path d="M25.1677 23V12.0909H26.4248V16.1179H26.5313C26.6237 15.9759 26.7515 15.7947 26.9149 15.5746C27.0818 15.3509 27.3197 15.152 27.6286 14.978C27.9411 14.8004 28.3637 14.7116 28.8964 14.7116C29.5853 14.7116 30.1926 14.8839 30.7181 15.2283C31.2437 15.5728 31.6539 16.0611 31.9486 16.6932C32.2433 17.3253 32.3907 18.071 32.3907 18.9304C32.3907 19.7969 32.2433 20.5479 31.9486 21.1836C31.6539 21.8157 31.2455 22.3058 30.7235 22.6538C30.2014 22.9982 29.5995 23.1705 28.9177 23.1705C28.3921 23.1705 27.9713 23.0835 27.6553 22.9094C27.3392 22.7319 27.096 22.5312 26.9255 22.3075C26.7551 22.0803 26.6237 21.892 26.5313 21.7429H26.3822V23H25.1677ZM26.4035 18.9091C26.4035 19.527 26.4941 20.0721 26.6752 20.5444C26.8563 21.0131 27.1208 21.3807 27.4688 21.647C27.8169 21.9098 28.243 22.0412 28.7472 22.0412C29.2728 22.0412 29.7114 21.9027 30.0629 21.6257C30.4181 21.3452 30.6844 20.9687 30.8619 20.4964C31.0431 20.0206 31.1336 19.4915 31.1336 18.9091C31.1336 18.3338 31.0448 17.8153 30.8673 17.3537C30.6933 16.8885 30.4287 16.521 30.0736 16.2511C29.722 15.9776 29.2799 15.8409 28.7472 15.8409C28.2359 15.8409 27.8062 15.9705 27.4582 16.2298C27.1102 16.4854 26.8474 16.8441 26.6698 17.3058C26.4923 17.7638 26.4035 18.2983 26.4035 18.9091ZM36.7213 23.1918C36.2029 23.1918 35.7323 23.0941 35.3097 22.8988C34.8872 22.6999 34.5516 22.4141 34.303 22.0412C34.0544 21.6648 33.9301 21.2102 33.9301 20.6776C33.9301 20.2088 34.0225 19.8288 34.2071 19.5376C34.3918 19.2429 34.6386 19.0121 34.9475 18.8452C35.2565 18.6783 35.5974 18.554 35.9703 18.4723C36.3467 18.3871 36.7249 18.3196 37.1048 18.2699C37.602 18.206 38.0051 18.158 38.314 18.1261C38.6265 18.0906 38.8538 18.032 38.9958 17.9503C39.1414 17.8686 39.2142 17.7266 39.2142 17.5241V17.4815C39.2142 16.956 39.0704 16.5476 38.7828 16.2564C38.4987 15.9652 38.0672 15.8196 37.4884 15.8196C36.8882 15.8196 36.4177 15.951 36.0768 16.2138C35.7359 16.4766 35.4962 16.7571 35.3577 17.0554L34.1645 16.6293C34.3776 16.1321 34.6617 15.745 35.0168 15.468C35.3754 15.1875 35.7661 14.9922 36.1887 14.8821C36.6148 14.7685 37.0338 14.7116 37.4458 14.7116C37.7085 14.7116 38.0104 14.7436 38.3513 14.8075C38.6958 14.8679 39.0278 14.994 39.3474 15.1857C39.6705 15.3775 39.9387 15.6669 40.1517 16.054C40.3648 16.4411 40.4713 16.9595 40.4713 17.6094V23H39.2142V21.892H39.1503C39.0651 22.0696 38.923 22.2596 38.7242 22.462C38.5253 22.6644 38.2607 22.8366 37.9305 22.9787C37.6002 23.1207 37.1972 23.1918 36.7213 23.1918ZM36.9131 22.0625C37.4102 22.0625 37.8293 21.9648 38.1702 21.7695C38.5146 21.5742 38.7739 21.3221 38.9479 21.0131C39.1254 20.7042 39.2142 20.3793 39.2142 20.0384V18.8878C39.161 18.9517 39.0438 19.0103 38.8627 19.0636C38.6851 19.1133 38.4791 19.1577 38.2448 19.1967C38.0139 19.2322 37.7884 19.2642 37.5683 19.2926C37.3517 19.3175 37.1759 19.3388 37.0409 19.3565C36.7142 19.3991 36.4088 19.4684 36.1247 19.5643C35.8442 19.6566 35.6169 19.7969 35.4429 19.9851C35.2725 20.1697 35.1872 20.4219 35.1872 20.7415C35.1872 21.1783 35.3488 21.5085 35.672 21.7322C35.9987 21.9524 36.4124 22.0625 36.9131 22.0625ZM46.0897 23.1705C45.3226 23.1705 44.6621 22.9893 44.1081 22.6271C43.5542 22.2649 43.128 21.766 42.8297 21.1303C42.5314 20.4947 42.3823 19.7685 42.3823 18.9517C42.3823 18.1207 42.535 17.3874 42.8404 16.7518C43.1493 16.1126 43.579 15.6136 44.1294 15.255C44.6834 14.8928 45.3297 14.7116 46.0684 14.7116C46.6436 14.7116 47.1621 14.8182 47.6238 15.0312C48.0854 15.2443 48.4636 15.5426 48.7583 15.9261C49.0531 16.3097 49.236 16.7571 49.307 17.2685H48.0499C47.954 16.8956 47.7409 16.5653 47.4107 16.2777C47.084 15.9865 46.6436 15.8409 46.0897 15.8409C45.5996 15.8409 45.1699 15.9687 44.8006 16.2244C44.4348 16.4766 44.149 16.8335 43.943 17.2951C43.7406 17.7532 43.6394 18.2912 43.6394 18.9091C43.6394 19.5412 43.7388 20.0916 43.9377 20.5604C44.1401 21.0291 44.4242 21.3931 44.79 21.6523C45.1593 21.9116 45.5925 22.0412 46.0897 22.0412C46.4164 22.0412 46.7129 21.9844 46.9792 21.8707C47.2456 21.7571 47.4711 21.5938 47.6557 21.3807C47.8404 21.1676 47.9718 20.9119 48.0499 20.6136H49.307C49.236 21.0966 49.0602 21.5316 48.7797 21.9187C48.5027 22.3022 48.1351 22.6076 47.677 22.8349C47.2225 23.0586 46.6934 23.1705 46.0897 23.1705ZM52.3166 20.017L52.2953 18.4616H52.551L56.1305 14.8182H57.6859L53.872 18.6747H53.7654L52.3166 20.017ZM51.1447 23V12.0909H52.4018V23H51.1447ZM56.3436 23L53.1475 18.9517L54.0424 18.0781L57.9416 23H56.3436Z" fill="black"/>
</svg>
