<svg width="41" height="42" viewBox="0 0 41 42" fill="none" xmlns="http://www.w3.org/2000/svg">
<rect x="0.5" y="0.5" width="39.4151" height="41" rx="19.7075" stroke="#B3B3B3"/>
<path d="M26.9943 19.1125C26.9093 18.8222 26.7389 18.6785 26.4935 18.6785H21.7297L24.0967 10.0239C24.1998 9.64913 24.1104 9.3645 23.8807 9.15314C23.6779 8.96715 23.3809 9.00942 23.2129 9.23205L13.5378 22.0603C13.3698 22.2829 13.33 22.5619 13.4201 22.8776C13.5068 23.1819 13.6755 23.3285 13.9209 23.3285H18.6847L16.3176 31.9943C16.2148 32.3691 16.3023 32.6453 16.5337 32.851C16.6856 32.989 16.993 33.0482 17.2212 32.7467L26.8765 19.9185C27.0444 19.6958 27.0861 19.4281 26.9943 19.1125ZM18.1838 29.4185L19.9715 22.8522C20.0398 22.6014 20.0205 22.3619 19.9126 22.1645C19.8045 21.9673 19.6571 21.8743 19.4704 21.8743H15.2469L22.2305 12.5885L20.4331 19.166C20.3708 19.3943 20.3983 19.6113 20.5018 19.8142C20.6145 20.034 20.7572 20.144 20.944 20.144H25.1675L18.1838 29.4185Z" fill="#656565"/>
</svg>
