<svg width="16" height="16" viewBox="0 0 16 16" fill="none" xmlns="http://www.w3.org/2000/svg">
<path d="M8.37062 0.21196C8.287 0.0689697 8.15765 0 8.00001 0C7.82658 0 7.70898 0.075697 7.62941 0.21196C4.45985 5.68269 2.86658 9.22554 2.86658 10.8657C2.86658 11.796 3.09233 12.6573 3.5526 13.4446C4.01488 14.2353 4.64086 14.856 5.42932 15.3136C6.21783 15.7712 7.07745 16 8.00001 16C8.92256 16 9.78221 15.7712 10.5707 15.3136C11.3593 14.8561 11.9792 14.2319 12.4395 13.4446C12.9018 12.654 13.1334 11.796 13.1334 10.8657C13.1334 9.22554 11.5516 5.67596 8.37062 0.21196ZM11.6904 13.0106C11.304 13.665 10.782 14.1747 10.1291 14.5566C9.47284 14.9402 8.76494 15.1319 8.00001 15.1319C7.22718 15.1319 6.51137 14.9402 5.85512 14.5566C5.2024 14.1747 4.6851 13.6667 4.30171 13.0106C3.92017 12.3579 3.73395 11.6396 3.73395 10.8657C3.73395 10.4317 3.88149 9.80925 4.17555 8.99C4.47298 8.16063 4.85939 7.26903 5.32688 6.31689C6.27098 4.39071 7.14846 2.76731 8.00001 1.30881C8.85157 2.76733 9.72266 4.39408 10.6654 6.31691C11.1343 7.27242 11.5202 8.16236 11.8166 8.99002C12.1115 9.81097 12.2661 10.4317 12.2661 10.8657C12.2661 11.6396 12.0768 12.3562 11.6904 13.0106Z" fill="white"/>
<path d="M9.63234 7.87807C9.45285 8.02947 9.42491 8.31377 9.58507 8.49211C9.62224 8.53415 9.74877 8.68219 9.97923 9.06072C10.0957 9.25082 10.189 9.45605 10.2711 9.67476C10.4334 10.1105 10.5889 10.706 10.4839 11.2527C10.3286 12.0619 9.76877 12.7701 8.75705 13.3572C8.54642 13.48 8.47408 13.7206 8.59923 13.9342C8.68689 14.0823 8.8043 14.163 8.97002 14.163C9.04085 14.163 9.11184 14.1462 9.19073 14.1142C10.4445 13.3976 11.159 12.4976 11.3435 11.4024C11.6478 9.59567 10.3015 7.98912 10.2474 7.92518C10.0886 7.73676 9.8157 7.72161 9.63234 7.87807Z" fill="white"/>
</svg>
