<svg width="210" height="61" viewBox="0 0 210 61" fill="none" xmlns="http://www.w3.org/2000/svg">
<rect x="0.5" y="0.5" width="209" height="60" rx="19.5" fill="url(#paint0_linear_74_17)" stroke="#D9D9D9"/>
<path d="M71.7689 35.251H75.309C75.5355 37.1343 77.4188 38.3662 79.911 38.3662C82.3749 38.3662 84.0883 37.1484 84.0883 35.4492C84.0883 33.9766 83.0404 33.127 80.4633 32.5181L77.8153 31.895C74.0487 31.0312 72.2645 29.2188 72.2645 26.3018C72.2645 22.6768 75.4223 20.2271 79.8686 20.2271C84.3715 20.2271 87.3451 22.6626 87.4301 26.2593H83.9467C83.7768 24.3477 82.1767 23.2007 79.8402 23.2007C77.5321 23.2007 75.9745 24.3335 75.9745 26.0327C75.9745 27.3921 77.0082 28.1851 79.5145 28.7798L81.8651 29.3179C86.0141 30.2666 87.7699 31.98 87.7699 35.0244C87.7699 38.9043 84.6547 41.3398 79.7128 41.3398C75.0116 41.3398 71.9247 39.0176 71.7689 35.251ZM92.6042 22.4785H96.1301V25.9902H98.9621V28.709H96.1301V36.5112C96.1301 37.7432 96.6965 38.3096 97.9426 38.3096C98.2683 38.3096 98.7214 38.2812 98.948 38.2388V40.9292C98.5656 41.0142 97.8718 41.0708 97.1213 41.0708C93.8786 41.0708 92.6042 39.9238 92.6042 37.0068V28.709H90.4519V25.9902H92.6042V22.4785ZM108.101 38.5786C110.098 38.5786 111.698 37.2476 111.698 35.4351V34.2881L108.229 34.5005C106.529 34.6138 105.552 35.3784 105.552 36.5679C105.552 37.7998 106.572 38.5786 108.101 38.5786ZM107.039 41.2407C104.136 41.2407 102.026 39.4141 102.026 36.7095C102.026 34.0474 104.08 32.4473 107.733 32.2207L111.698 31.9941V30.918C111.698 29.3462 110.636 28.4399 108.894 28.4399C107.223 28.4399 106.161 29.2471 105.935 30.4932H102.664C102.819 27.6895 105.212 25.6787 109.036 25.6787C112.76 25.6787 115.181 27.647 115.181 30.6631V41H111.783V38.6069H111.712C110.848 40.2354 108.965 41.2407 107.039 41.2407ZM119.477 41V25.9902H122.862V28.6099H122.932C123.442 26.7832 124.759 25.7354 126.529 25.7354C126.982 25.7354 127.379 25.8203 127.634 25.877V29.063C127.336 28.9497 126.798 28.8647 126.203 28.8647C124.207 28.8647 123.003 30.1533 123.003 32.2632V41H119.477ZM131.873 22.4785H135.399V25.9902H138.231V28.709H135.399V36.5112C135.399 37.7432 135.965 38.3096 137.212 38.3096C137.537 38.3096 137.99 38.2812 138.217 38.2388V40.9292C137.835 41.0142 137.141 41.0708 136.39 41.0708C133.148 41.0708 131.873 39.9238 131.873 37.0068V28.709H129.721V25.9902H131.873V22.4785Z" fill="white"/>
<defs>
<linearGradient id="paint0_linear_74_17" x1="234.15" y1="61" x2="-21.6068" y2="-3.82017" gradientUnits="userSpaceOnUse">
<stop stop-color="#FF5BE5"/>
<stop offset="0.396268" stop-color="#FA7DA3"/>
<stop offset="1" stop-color="#F5A35A"/>
</linearGradient>
</defs>
</svg>
