<svg width="48" height="48" viewBox="0 0 48 48" fill="none" xmlns="http://www.w3.org/2000/svg">
<rect x="0.5" y="0.5" width="47" height="47" rx="9.5" stroke="#A5A5A5"/>
<path d="M22.2807 25.7917V11.1646C22.2807 9.9658 21.3056 8.98999 20.1069 8.98999H16.4813C15.2826 8.98999 14.3068 9.96584 14.3068 11.1646V25.7917C12.0351 27.1794 10.64 29.6475 10.64 32.3265C10.64 36.5463 14.0736 39.9798 18.2941 39.9798C22.5146 39.9798 25.9482 36.5463 25.9482 32.3265C25.9482 29.6475 24.5532 27.1794 22.2807 25.7917ZM18.2941 38.662C14.8002 38.662 11.9579 35.8197 11.9579 32.3265C11.9579 29.9989 13.2308 27.8626 15.2797 26.7522C15.4923 26.6367 15.6246 26.4146 15.6246 26.1726V11.1646C15.6246 10.6924 16.0093 10.3078 16.4814 10.3078H20.1069C20.5791 10.3078 20.9629 10.6924 20.9629 11.1646V26.1727C20.9629 26.4146 21.0953 26.6367 21.3078 26.7522C23.3574 27.8626 24.6304 29.9983 24.6304 32.3266C24.6304 35.8196 21.788 38.662 18.2941 38.662Z" fill="#A5A5A5"/>
<path d="M20.1098 28.359V12.8361C20.1098 11.7109 19.295 10.7953 18.2941 10.7953C17.2932 10.7953 16.4784 11.7109 16.4784 12.8361V28.3053C14.8576 28.9996 13.7993 30.5807 13.7993 32.3809C13.7993 34.8283 15.79 36.8191 18.2375 36.8191C20.6849 36.8191 22.6764 34.8283 22.6764 32.3809C22.6764 30.6409 21.6623 29.0804 20.1098 28.359ZM20.251 34.7607C20.2378 34.7599 20.2253 34.757 20.2121 34.757H16.3762C16.3284 34.757 16.2813 34.7629 16.2364 34.7724C15.9534 34.5349 15.7143 34.2474 15.5297 33.9253H20.946C20.7636 34.243 20.529 34.5254 20.251 34.7607ZM21.3401 32.6074H15.2481C15.2076 32.6074 15.1679 32.6118 15.1289 32.6192C15.123 32.5405 15.1171 32.4611 15.1171 32.3809C15.1171 32.1713 15.1436 31.9676 15.1833 31.7683C15.2046 31.7705 15.2259 31.775 15.248 31.775H21.2923C21.3313 31.9728 21.3585 32.1735 21.3585 32.3809C21.3585 32.4574 21.3519 32.5324 21.3467 32.6081C21.3446 32.6081 21.3423 32.6074 21.3401 32.6074ZM17.7962 28.3075V27.4758H18.792V28.3075H17.7962ZM18.792 24.0076H17.7962V23.1759H18.792V24.0076ZM17.7962 25.3255H18.792V26.158H17.7962V25.3255ZM18.792 21.8581H17.7962V21.0263H18.792V21.8581ZM18.2941 12.1132C18.5596 12.1132 18.792 12.4508 18.792 12.8361V19.7084H17.7962V12.8361C17.7962 12.4508 18.0294 12.1132 18.2941 12.1132ZM16.7836 29.6239C16.7873 29.6247 16.7909 29.6254 16.7939 29.6254H19.6972C20.087 29.8313 20.4179 30.1196 20.6841 30.4571H15.782C16.0497 30.1159 16.3887 29.8313 16.7836 29.6239Z" fill="#A5A5A5"/>
<path d="M37.1595 21.9044H37.7412C38.1052 21.9044 38.4001 21.6094 38.4001 21.2454C38.4001 20.8822 38.1053 20.5865 37.7412 20.5865H37.1595H36.0248C35.9954 20.3666 35.9511 20.1511 35.8931 19.9416L37.4904 19.2966C37.8279 19.1605 37.9913 18.7767 37.8552 18.4391C37.7184 18.1015 37.3338 17.9383 36.9977 18.0743L35.3746 18.7296C35.2482 18.5178 35.1106 18.3141 34.9547 18.1244L36.2042 16.8757C36.4616 16.6183 36.4608 16.2006 36.2035 15.9432C35.9461 15.6865 35.529 15.6865 35.2717 15.9439L33.9876 17.2287C33.82 17.1096 33.6457 16.9992 33.4633 16.9021L34.1825 15.2085C34.3252 14.8739 34.1686 14.4871 33.834 14.3444C33.4986 14.2025 33.1118 14.3583 32.9698 14.6937L32.2264 16.444C32.0094 16.3955 31.7874 16.3616 31.5609 16.3425V14.9879V14.4069C31.5609 14.0429 31.266 13.748 30.9019 13.748C30.5386 13.748 30.243 14.0429 30.243 14.4069V14.9879V16.4094C30.0629 16.4425 29.8848 16.4844 29.712 16.5374L28.9532 14.6569C28.8171 14.3194 28.4317 14.1562 28.0957 14.293C27.7581 14.429 27.5948 14.8129 27.7308 15.1504L28.5148 17.0934C28.3464 17.2008 28.1824 17.314 28.0287 17.4405L26.5322 15.9439C26.2748 15.6866 25.8578 15.6866 25.6004 15.9439C25.343 16.2013 25.343 16.6183 25.6004 16.8757L27.133 18.4083C27.0388 18.5399 26.9521 18.6767 26.8712 18.8179L24.865 17.9648C24.5296 17.8229 24.1428 17.9788 24.0009 18.3142C23.8589 18.6488 24.0148 19.0356 24.3502 19.1782L26.3813 20.0409C26.3357 20.2196 26.3004 20.4013 26.2755 20.5866H24.6443H24.0633C23.6993 20.5866 23.4044 20.8822 23.4044 21.2455C23.4044 21.6095 23.6993 21.9045 24.0633 21.9045H24.6443H26.2755C26.2968 22.0618 26.3248 22.217 26.3601 22.3692L24.3134 23.1951C23.9766 23.3312 23.8133 23.715 23.9494 24.0526C24.053 24.3092 24.2995 24.4651 24.5604 24.4651C24.6429 24.4651 24.726 24.4497 24.8069 24.4173L26.8271 23.601C26.919 23.7687 27.0226 23.9283 27.1329 24.0834L25.6004 25.616C25.343 25.8734 25.343 26.2904 25.6004 26.5478C25.729 26.6765 25.8974 26.7405 26.0659 26.7405C26.2351 26.7405 26.4035 26.6765 26.5322 26.5478L28.0287 25.0512C28.1603 25.1594 28.2986 25.2594 28.4412 25.3535L27.622 27.2825C27.4794 27.6178 27.6352 28.0047 27.9706 28.1466C28.0544 28.1826 28.142 28.1995 28.2279 28.1995C28.4839 28.1995 28.7281 28.0488 28.8347 27.798L29.6297 25.9271C29.8289 25.9919 30.0341 26.0433 30.2429 26.0823V27.5031V28.0848C30.2429 28.4488 30.5386 28.7438 30.9019 28.7438C31.2659 28.7438 31.5609 28.4489 31.5609 28.0848V27.5031V26.1492C31.7564 26.1323 31.9506 26.1089 32.1388 26.0698L32.8514 27.8341C32.9545 28.0907 33.2015 28.2466 33.4625 28.2466C33.5449 28.2466 33.628 28.2312 33.7089 28.1988C34.0465 28.0627 34.2097 27.6789 34.0737 27.3413L33.3825 25.6293C33.5935 25.5213 33.795 25.3991 33.9876 25.2631L35.2717 26.5478C35.4003 26.6765 35.5695 26.7405 35.7379 26.7405C35.9063 26.7405 36.0754 26.6765 36.2042 26.5478C36.4616 26.2905 36.4616 25.8734 36.2042 25.6161L34.9555 24.3666C35.0915 24.2011 35.2129 24.0239 35.3269 23.8416L36.9397 24.5262C37.0234 24.5622 37.1109 24.5791 37.1963 24.5791C37.453 24.5791 37.6971 24.4284 37.8037 24.1776C37.9457 23.8423 37.7898 23.4555 37.4544 23.3135L35.8696 22.6406C35.9403 22.4023 35.9909 22.156 36.0249 21.9045H37.1595V21.9044ZM31.1498 24.8518C29.1613 24.8518 27.5441 23.2339 27.5441 21.2454C27.5441 19.2576 29.1613 17.6397 31.1498 17.6397C33.1383 17.6397 34.7563 19.2576 34.7563 21.2454C34.7562 23.234 33.1383 24.8518 31.1498 24.8518Z" fill="#A5A5A5"/>
</svg>
