<svg width="55" height="55" viewBox="0 0 55 55" fill="none" xmlns="http://www.w3.org/2000/svg">
<g clip-path="url(#clip0_74_102)">
<path d="M27.5 29.7735C22.0165 29.7735 16.5219 29.7735 11.0384 29.7735C10.6149 29.7735 10.2025 29.7735 9.77898 29.7735C10.0576 30.0521 10.3362 30.3307 10.6149 30.6094C10.6149 26.6416 10.6149 22.6628 10.6149 18.695C10.3362 18.9737 10.0576 19.2523 9.77898 19.5309C15.2625 19.5309 20.7571 19.5309 26.2406 19.5309C26.6641 19.5309 27.0765 19.5309 27.5 19.5309C27.2214 19.2523 26.9427 18.9737 26.6641 18.695C26.6641 22.6628 26.6641 26.6416 26.6641 30.6094C26.6641 31.6904 28.3359 31.6904 28.3359 30.6094C28.3359 26.6416 28.3359 22.6628 28.3359 18.695C28.3359 18.2381 27.957 17.8591 27.5 17.8591C22.0165 17.8591 16.5219 17.8591 11.0384 17.8591C10.6149 17.8591 10.2025 17.8591 9.77898 17.8591C9.32202 17.8591 8.94308 18.2381 8.94308 18.695C8.94308 22.6628 8.94308 26.6416 8.94308 30.6094C8.94308 31.0663 9.32202 31.4453 9.77898 31.4453C15.2625 31.4453 20.7571 31.4453 26.2406 31.4453C26.6641 31.4453 27.0765 31.4453 27.5 31.4453C28.5811 31.4453 28.5811 29.7735 27.5 29.7735Z" fill="#F5A35A"/>
<path d="M27.5 41.6878C22.0165 41.6878 16.5219 41.6878 11.0384 41.6878C10.6149 41.6878 10.2025 41.6878 9.77898 41.6878C10.0576 41.9664 10.3362 42.245 10.6149 42.5237C10.6149 38.5559 10.6149 34.5771 10.6149 30.6093C10.3362 30.888 10.0576 31.1666 9.77898 31.4452C15.2625 31.4452 20.7571 31.4452 26.2406 31.4452C26.6641 31.4452 27.0765 31.4452 27.5 31.4452C27.2214 31.1666 26.9427 30.888 26.6641 30.6093C26.6641 34.5771 26.6641 38.5559 26.6641 42.5237C26.6641 43.6048 28.3359 43.6048 28.3359 42.5237C28.3359 38.5559 28.3359 34.5771 28.3359 30.6093C28.3359 30.1524 27.957 29.7734 27.5 29.7734C22.0165 29.7734 16.5219 29.7734 11.0384 29.7734C10.6149 29.7734 10.2025 29.7734 9.77898 29.7734C9.32202 29.7734 8.94308 30.1524 8.94308 30.6093C8.94308 34.5771 8.94308 38.5559 8.94308 42.5237C8.94308 42.9806 9.32202 43.3596 9.77898 43.3596C15.2625 43.3596 20.7571 43.3596 26.2406 43.3596C26.6641 43.3596 27.0765 43.3596 27.5 43.3596C28.5811 43.3596 28.5811 41.6878 27.5 41.6878Z" fill="#F5A35A"/>
<path d="M27.5 53.6021C22.0165 53.6021 16.5219 53.6021 11.0384 53.6021C10.6149 53.6021 10.2025 53.6021 9.77898 53.6021C10.0576 53.8807 10.3362 54.1593 10.6149 54.438C10.6149 50.4702 10.6149 46.4914 10.6149 42.5236C10.3362 42.8023 10.0576 43.0809 9.77898 43.3595C15.2625 43.3595 20.7571 43.3595 26.2406 43.3595C26.6641 43.3595 27.0765 43.3595 27.5 43.3595C27.2214 43.0809 26.9427 42.8023 26.6641 42.5236C26.6641 46.4914 26.6641 50.4702 26.6641 54.438C26.6641 55.5191 28.3359 55.5191 28.3359 54.438C28.3359 50.4702 28.3359 46.4914 28.3359 42.5236C28.3359 42.0667 27.957 41.6877 27.5 41.6877C22.0165 41.6877 16.5219 41.6877 11.0384 41.6877C10.6149 41.6877 10.2025 41.6877 9.77898 41.6877C9.32202 41.6877 8.94308 42.0667 8.94308 42.5236C8.94308 46.4914 8.94308 50.4702 8.94308 54.438C8.94308 54.8949 9.32202 55.2739 9.77898 55.2739C15.2625 55.2739 20.7571 55.2739 26.2406 55.2739C26.6641 55.2739 27.0765 55.2739 27.5 55.2739C28.5811 55.2739 28.5811 53.6021 27.5 53.6021Z" fill="#F5A35A"/>
<path d="M45.221 53.6244C39.7375 53.6244 34.2429 53.6244 28.7594 53.6244C28.3359 53.6244 27.9235 53.6244 27.5 53.6244C27.7786 53.903 28.0573 54.1817 28.3359 54.4603C28.3359 50.0022 28.3359 45.5552 28.3359 41.0971C28.3359 34.5436 28.3359 27.9902 28.3359 21.4479C28.3359 20.534 28.3359 19.6089 28.3359 18.695C28.0573 18.9737 27.7786 19.2523 27.5 19.5309C32.9835 19.5309 38.4781 19.5309 43.9616 19.5309C44.3851 19.5309 44.7975 19.5309 45.221 19.5309C44.9424 19.2523 44.6638 18.9737 44.3851 18.695C44.3851 23.1531 44.3851 27.6001 44.3851 32.0582C44.3851 38.6117 44.3851 45.1651 44.3851 51.7074C44.3851 52.6213 44.3851 53.5464 44.3851 54.4603C44.3851 55.5414 46.0569 55.5414 46.0569 54.4603C46.0569 50.0022 46.0569 45.5552 46.0569 41.0971C46.0569 34.5436 46.0569 27.9902 46.0569 21.4479C46.0569 20.534 46.0569 19.6089 46.0569 18.695C46.0569 18.2381 45.678 17.8591 45.221 17.8591C39.7375 17.8591 34.2429 17.8591 28.7594 17.8591C28.3359 17.8591 27.9235 17.8591 27.5 17.8591C27.043 17.8591 26.6641 18.2381 26.6641 18.695C26.6641 23.1531 26.6641 27.6001 26.6641 32.0582C26.6641 38.6117 26.6641 45.1651 26.6641 51.7074C26.6641 52.6213 26.6641 53.5464 26.6641 54.4603C26.6641 54.9173 27.043 55.2962 27.5 55.2962C32.9835 55.2962 38.4781 55.2962 43.9616 55.2962C44.3851 55.2962 44.7975 55.2962 45.221 55.2962C46.3021 55.2962 46.3021 53.6244 45.221 53.6244Z" fill="#F5A35A"/>
<path d="M33.786 17.848C31.1445 17.848 28.4919 17.848 25.8505 17.848C24.4685 17.848 23.0753 17.848 21.6933 17.848C20.0772 17.848 18.6283 17.4356 17.4469 16.2542C16.3213 15.1285 15.9535 13.6573 15.9535 12.1081C15.6748 12.3868 15.3962 12.6654 15.1176 12.944C20.445 12.944 25.7836 12.944 31.1111 12.944C34.0311 12.944 36.9512 12.944 39.8713 12.944C39.5927 12.6654 39.314 12.3868 39.0354 12.1081C39.0354 13.5124 38.7568 14.8164 37.8428 15.931C36.8398 17.157 35.3574 17.8368 33.786 17.848C32.7049 17.8591 32.7049 19.5309 33.786 19.5198C35.7921 19.4975 37.698 18.6393 39.0242 17.1235C40.2614 15.6969 40.7072 13.9694 40.7072 12.1193C40.7072 11.6623 40.3282 11.2834 39.8713 11.2834C34.5438 11.2834 29.2052 11.2834 23.8778 11.2834C20.9577 11.2834 18.0376 11.2834 15.1176 11.2834C14.6606 11.2834 14.2817 11.6623 14.2817 12.1193C14.2817 13.245 14.4154 14.3149 14.8612 15.3514C15.3628 16.5217 16.1764 17.469 17.1906 18.2269C18.528 19.2411 20.1553 19.5198 21.7825 19.5198C24.97 19.5198 28.1576 19.5198 31.334 19.5198C32.1476 19.5198 32.9612 19.5198 33.7748 19.5198C34.867 19.5198 34.867 17.848 33.786 17.848Z" fill="#F5A35A"/>
<path d="M35.2237 5.26491C35.2237 4.3287 35.2348 3.43708 34.8559 2.56775C34.3432 1.3752 33.2956 0.528157 32.0584 0.160363C29.3947 -0.608663 26.8424 1.4978 26.6641 4.13924C26.5861 5.34293 26.6641 6.56891 26.6641 7.76146C26.6641 9.17691 26.6641 10.6035 26.6641 12.019C26.6641 12.0524 26.6641 12.0858 26.6641 12.1193C26.6641 13.2004 28.3359 13.2004 28.3359 12.1193C28.3359 9.65616 28.3359 7.1819 28.3359 4.71879C28.3359 4.2284 28.3359 3.738 28.5365 3.2699C28.96 2.30026 29.8962 1.69841 30.9439 1.67612C31.9581 1.65383 32.8163 2.26682 33.2844 3.13616C33.6299 3.78259 33.5519 4.55161 33.5519 5.25377C33.5519 6.346 35.2237 6.346 35.2237 5.26491Z" fill="#F5A35A"/>
<path d="M16.6891 25.4825C17.9931 25.4825 19.2859 25.4825 20.5899 25.4825C21.671 25.4825 21.671 23.8107 20.5899 23.8107C19.2859 23.8107 17.9931 23.8107 16.6891 23.8107C15.608 23.8107 15.608 25.4825 16.6891 25.4825Z" fill="#F5A35A"/>
<path d="M16.6891 37.4079C17.9931 37.4079 19.2859 37.4079 20.5899 37.4079C21.671 37.4079 21.671 35.7361 20.5899 35.7361C19.2859 35.7361 17.9931 35.7361 16.6891 35.7361C15.608 35.7361 15.608 37.4079 16.6891 37.4079Z" fill="#F5A35A"/>
<path d="M16.6891 49.3111C17.9931 49.3111 19.2859 49.3111 20.5899 49.3111C21.671 49.3111 21.671 47.6393 20.5899 47.6393C19.2859 47.6393 17.9931 47.6393 16.6891 47.6393C15.608 47.6393 15.608 49.3111 16.6891 49.3111Z" fill="#F5A35A"/>
<path d="M32.6603 38.5225C32.6603 37.2185 32.6603 35.9256 32.6603 34.6216C32.6603 33.5405 30.9885 33.5405 30.9885 34.6216C30.9885 35.9256 30.9885 37.2185 30.9885 38.5225C30.9885 39.6036 32.6603 39.6036 32.6603 38.5225Z" fill="#F5A35A"/>
</g>
<defs>
<clipPath id="clip0_74_102">
<rect width="55" height="55" fill="white"/>
</clipPath>
</defs>
</svg>
