<svg width="55" height="55" viewBox="0 0 55 55" fill="none" xmlns="http://www.w3.org/2000/svg">
<path d="M42.54 34.08H12.46C10.3834 34.08 8.69998 35.7634 8.69998 37.84V47.24H46.3V37.84C46.3 35.7634 44.6166 34.08 42.54 34.08Z" stroke="#F5A35A" stroke-width="2" stroke-miterlimit="10" stroke-linecap="round" stroke-linejoin="round"/>
<path d="M25.62 24.68C22.3943 23.3506 18.9223 23.5027 15.28 24.68V34.08H25.62V24.68Z" stroke="#F5A35A" stroke-width="2" stroke-miterlimit="10" stroke-linecap="round" stroke-linejoin="round"/>
<path d="M39.72 24.68C36.4943 23.3506 33.0223 23.5027 29.38 24.68V34.08H39.72V24.68Z" stroke="#F5A35A" stroke-width="2" stroke-miterlimit="10" stroke-linecap="round" stroke-linejoin="round"/>
<path d="M14.81 51C13.5121 51 12.46 49.9479 12.46 48.65V47.24H17.16V48.65C17.16 49.9479 16.1079 51 14.81 51Z" stroke="#F5A35A" stroke-width="2" stroke-miterlimit="10" stroke-linecap="round" stroke-linejoin="round"/>
<path d="M40.19 51C38.8921 51 37.84 49.9479 37.84 48.65V47.24H42.54V48.65C42.54 49.9479 41.4878 51 40.19 51Z" stroke="#F5A35A" stroke-width="2" stroke-miterlimit="10" stroke-linecap="round" stroke-linejoin="round"/>
<path d="M53.82 35.02H50.06V47.24H53.82V35.02Z" stroke="#F5A35A" stroke-width="2" stroke-miterlimit="10" stroke-linecap="round" stroke-linejoin="round"/>
<path d="M51.94 35.0201V28.4401" stroke="#F5A35A" stroke-width="2" stroke-miterlimit="10" stroke-linecap="round" stroke-linejoin="round"/>
<path d="M52.88 23.74H51L50.06 28.44H53.82L52.88 23.74Z" stroke="#F5A35A" stroke-width="2" stroke-miterlimit="10" stroke-linecap="round" stroke-linejoin="round"/>
<path d="M4.93999 35.02H1.17999V47.24H4.93999V35.02Z" stroke="#F5A35A" stroke-width="2" stroke-miterlimit="10" stroke-linecap="round" stroke-linejoin="round"/>
<path d="M3.06 35.0201V28.4401" stroke="#F5A35A" stroke-width="2" stroke-miterlimit="10" stroke-linecap="round" stroke-linejoin="round"/>
<path d="M3.99999 23.74H2.11999L1.17999 28.44H4.93999L3.99999 23.74Z" stroke="#F5A35A" stroke-width="2" stroke-miterlimit="10" stroke-linecap="round" stroke-linejoin="round"/>
<path d="M25.62 4H16.22V13.4H25.62V4Z" stroke="#F5A35A" stroke-width="2" stroke-miterlimit="10" stroke-linecap="round" stroke-linejoin="round"/>
<path d="M38.78 4H29.38V13.4H38.78V4Z" stroke="#F5A35A" stroke-width="2" stroke-miterlimit="10" stroke-linecap="round" stroke-linejoin="round"/>
</svg>
