<svg width="55" height="55" viewBox="0 0 55 55" fill="none" xmlns="http://www.w3.org/2000/svg">
<g clip-path="url(#clip0_74_151)">
<path d="M27.4975 0.442749C22.0765 0.442749 19.2204 1.37986 17.1576 2.29661C15.0949 3.21341 13.9961 3.99276 11.5321 3.99276H0.885547C0.394956 3.99362 -0.00169515 4.3927 0.000220917 4.88326C0.0019948 5.37117 0.397662 5.76596 0.885547 5.76692V13.7487C0.395497 13.7505 -0.00165962 14.1493 0.000220917 14.6393C0.000566894 24.9924 -0.000417789 36.3063 0.000220917 46.5754C0.0019948 47.0632 0.397679 47.4579 0.885547 47.4589H3.55021V53.6667C3.54844 54.1568 3.94374 54.5555 4.43381 54.5573H7.98381C8.43085 54.5555 8.80611 54.223 8.86048 53.7793L8.98522 52.7831H11.5321C11.9791 52.7813 12.3561 52.4471 12.4105 52.0034L12.9701 47.4589H42.0319L42.5845 52.0034C42.6392 52.4496 43.0186 52.7848 43.4681 52.7831H46.0081L46.1328 53.7793C46.1874 54.2255 46.5686 54.559 47.0181 54.5573H50.5595C51.0521 54.559 51.4519 54.1593 51.45 53.6667V47.4589H54.1095C54.5994 47.4607 54.998 47.0653 55 46.5754C55 36.2225 55 24.9092 55 14.6393C55.0018 14.1467 54.6021 13.7468 54.1095 13.7487V5.76692C54.5994 5.7687 54.9981 5.37317 55 4.88326C55.0018 4.39065 54.6021 3.99082 54.1095 3.99276H43.4682C41.0041 3.99276 39.9001 3.21341 37.8374 2.29661C35.7746 1.37986 32.9185 0.442749 27.4975 0.442749ZM27.4975 2.21861C32.7213 2.21861 35.1876 3.05568 37.1166 3.91306C39.0457 4.77041 40.6098 5.76692 43.4681 5.76692H52.3336V13.7487H51.45C51.45 12.7742 51.0333 11.8385 50.284 11.1949C49.5347 10.5514 48.4851 10.2005 47.2659 10.2005H34.0916C32.8724 10.2005 31.8211 10.5514 31.0718 11.1949C30.3224 11.8385 29.9075 12.7742 29.9075 13.7487H2.65968V5.76692H11.5321C14.3904 5.76692 15.9494 4.77041 17.8784 3.91306C19.8074 3.05568 22.2737 2.21861 27.4975 2.21861ZM34.0916 11.9746C34.9758 11.9746 35.5715 12.2251 35.9437 12.5446C36.3159 12.8641 36.4946 13.2535 36.4946 13.7487H31.6816C31.6816 13.2535 31.8585 12.8643 32.2308 12.5446C32.603 12.2251 33.2074 11.9746 34.0916 11.9746ZM37.7473 11.9746H47.2659C48.1501 11.9746 48.7527 12.2251 49.1249 12.5446C49.4971 12.8641 49.6759 13.2535 49.6759 13.7487V32.3789H38.2688V13.7487C38.2688 13.1145 38.0769 12.5061 37.7473 11.9746ZM1.77608 15.5246H36.4946V17.2987C24.9218 17.2987 13.3489 17.2987 1.77608 17.2987C1.77606 16.7074 1.77608 16.116 1.77608 15.5246ZM51.45 15.5246H53.2241V17.2987H51.45V15.5246ZM1.77608 19.0729H3.55021V39.4771V42.1366H1.77608V19.0729ZM5.32434 19.0729H10.1374V35.9289H7.09847C6.45004 35.9289 5.84944 36.1178 5.32434 36.4261V19.0729ZM11.9115 19.0729H16.7245V35.9289H11.9115V19.0729ZM18.5004 19.0729H23.3186V35.9289H18.5004V19.0729ZM25.0945 19.0729H29.9075V35.9289H25.0945V19.0729ZM31.6816 19.0729H36.4946V21.7323H31.6816V19.0729ZM51.45 19.0729H53.2241V42.1366H51.45V39.4771V33.2694V19.0729ZM31.6816 23.5064H36.4946V35.9289H31.6816V23.5064ZM38.2688 34.153H43.0887V35.9289H38.2688V34.153ZM44.8628 34.153H49.6759V36.4261C49.1508 36.118 48.5502 35.9289 47.9017 35.9289H44.8628V34.153ZM7.09847 37.703H10.1374V42.1366H5.32434V39.4771C5.32434 38.4868 6.10813 37.703 7.09847 37.703ZM11.9115 37.703H16.7245V42.1366H11.9115V37.703ZM18.5004 37.703H23.3186V42.1366H18.5004V37.703ZM25.0945 37.703H29.9075V42.1366H25.0945V37.703ZM31.6816 37.703H36.4946V42.1366H31.6816V37.703ZM38.2688 37.703H43.0887V42.1366H38.2688V37.703ZM44.8628 37.703H47.9017C48.8921 37.703 49.6759 38.4868 49.6759 39.4771V42.1366H44.8628V37.703ZM1.77608 43.9107H4.43381H53.2241V45.6849H1.77608C1.77606 45.0934 1.77608 44.5021 1.77608 43.9107ZM5.32434 47.4589H7.86426L7.19723 52.7831H5.32434V47.4589ZM9.65398 47.4589H11.1821L10.7472 51.009H9.20871L9.65398 47.4589ZM43.8181 47.4589H45.3462L45.788 51.009H44.253L43.8181 47.4589ZM47.1342 47.4589H49.6759V52.7831H47.796L47.1342 47.4589Z" fill="#F5A35A"/>
</g>
<defs>
<clipPath id="clip0_74_151">
<rect width="55" height="55" fill="white"/>
</clipPath>
</defs>
</svg>
