<svg width="55" height="55" viewBox="0 0 55 55" fill="none" xmlns="http://www.w3.org/2000/svg">
<g clip-path="url(#clip0_74_700)">
<path d="M1.68622 42.9519C1.68622 37.906 1.68622 32.8713 1.68622 27.8253C1.40526 28.1063 1.12431 28.3872 0.843357 28.6682C3.60794 28.6682 6.37253 28.6682 9.14835 28.6682C10.171 28.6682 11.2049 28.6682 12.2276 28.6682C13.2728 28.6682 14.0707 29.5111 14.0931 30.5337C14.1044 30.7922 14.0931 31.0394 14.0931 31.2979C14.0931 35.1863 14.0931 39.0747 14.0931 42.9631C14.0931 44.0532 15.7789 44.0532 15.7789 42.9631C15.7789 40.266 15.7789 37.5688 15.7789 34.8717C15.7789 33.5343 15.7789 32.197 15.7789 30.8709C15.7789 28.8255 14.4977 27.1735 12.3849 27.005C11.7781 26.9488 11.1487 27.005 10.5306 27.005C9.23826 27.005 7.94587 27.005 6.64224 27.005C4.70928 27.005 2.77632 27.005 0.832119 27.005C0.371355 27.005 -0.0107422 27.3871 -0.0107422 27.8478C-0.0107422 32.8937 -0.0107422 37.9284 -0.0107422 42.9744C0.000495962 44.042 1.68622 44.042 1.68622 42.9519Z" fill="#F5A35A"/>
<path d="M1.68621 27.8253C1.68621 22.6108 1.68621 17.3963 1.68621 12.1706C1.68621 12.1256 1.68621 12.0919 1.68621 12.0469C1.68621 10.9568 0.000488281 10.9568 0.000488281 12.0469C0.000488281 17.2614 0.000488281 22.4759 0.000488281 27.7017C0.000488281 27.7466 0.000488281 27.7804 0.000488281 27.8253C0.000488281 28.9154 1.68621 28.9154 1.68621 27.8253Z" fill="#F5A35A"/>
<path d="M0.843363 32.4892C5.54091 32.4892 10.2385 32.4892 14.936 32.4892C16.0261 32.4892 16.0261 30.8035 14.936 30.8035C10.2385 30.8035 5.54091 30.8035 0.843363 30.8035C-0.246738 30.8035 -0.246738 32.4892 0.843363 32.4892Z" fill="#F5A35A"/>
<path d="M55 42.9518C55 37.9059 55 32.8712 55 27.8253C55 27.3645 54.6179 26.9824 54.1572 26.9824C51.3926 26.9824 48.628 26.9824 45.8522 26.9824C44.8295 26.9824 43.7956 26.9824 42.7729 26.9824C40.6714 26.9824 39.2216 28.7356 39.2216 30.7472C39.2216 34.8154 39.2216 38.8836 39.2216 42.9518C39.2216 44.0419 40.9074 44.0419 40.9074 42.9518C40.9074 40.2547 40.9074 37.5575 40.9074 34.8604C40.9074 33.523 40.9074 32.1857 40.9074 30.8596C40.9074 30.3426 40.9636 29.8931 41.267 29.4323C41.6379 28.8592 42.3121 28.6681 42.9415 28.6681C46.6838 28.6681 50.4148 28.6681 54.1572 28.6681C53.8762 28.3872 53.5952 28.1062 53.3143 27.8253C53.3143 32.8712 53.3143 37.9059 53.3143 42.9518C53.3143 44.0419 55 44.0419 55 42.9518Z" fill="#F5A35A"/>
<path d="M55 27.8253C55 22.6108 55 17.3963 55 12.1706C55 12.1256 55 12.0919 55 12.0469C55 10.9568 53.3143 10.9568 53.3143 12.0469C53.3143 17.2614 53.3143 22.4759 53.3143 27.7017C53.3143 27.7466 53.3143 27.7804 53.3143 27.8253C53.3143 28.9154 55 28.9154 55 27.8253Z" fill="#F5A35A"/>
<path d="M54.1571 30.8035C49.4596 30.8035 44.762 30.8035 40.0645 30.8035C38.9744 30.8035 38.9744 32.4892 40.0645 32.4892C44.762 32.4892 49.4596 32.4892 54.1571 32.4892C55.2472 32.4892 55.2472 30.8035 54.1571 30.8035Z" fill="#F5A35A"/>
<path d="M21.9711 43.7947C25.6572 43.7947 29.3433 43.7947 33.0407 43.7947C34.1308 43.7947 34.1308 42.109 33.0407 42.109C29.3545 42.109 25.6684 42.109 21.9711 42.109C20.881 42.109 20.881 43.7947 21.9711 43.7947Z" fill="#F5A35A"/>
<path d="M29.3658 42.109C28.1183 42.109 26.8709 42.109 25.6235 42.109C25.9044 42.39 26.1854 42.6709 26.4663 42.9519C26.4663 37.3553 26.4663 31.7587 26.4663 26.1621C26.4663 24.9146 26.4663 23.6672 26.4663 22.4085C26.1854 22.6895 25.9044 22.9704 25.6235 23.2514C26.8709 23.2514 28.1183 23.2514 29.3658 23.2514C29.0848 22.9704 28.8039 22.6895 28.5229 22.4085C28.5229 28.0051 28.5229 33.6017 28.5229 39.1983C28.5229 40.4458 28.5229 41.6932 28.5229 42.9519C28.5229 44.042 30.2086 44.042 30.2086 42.9519C30.2086 37.3553 30.2086 31.7587 30.2086 26.1621C30.2086 24.9146 30.2086 23.6672 30.2086 22.4085C30.2086 21.9478 29.8265 21.5657 29.3658 21.5657C28.1183 21.5657 26.8709 21.5657 25.6235 21.5657C25.1627 21.5657 24.7806 21.9478 24.7806 22.4085C24.7806 28.0051 24.7806 33.6017 24.7806 39.1983C24.7806 40.4458 24.7806 41.6932 24.7806 42.9519C24.7806 43.4126 25.1627 43.7947 25.6235 43.7947C26.8709 43.7947 28.1183 43.7947 29.3658 43.7947C30.4559 43.7947 30.4559 42.109 29.3658 42.109Z" fill="#F5A35A"/>
<path d="M36.738 21.5657C31.1639 21.5657 25.5897 21.5657 20.0156 21.5657C19.5661 21.5657 19.1278 21.5657 18.6783 21.5657C18.4423 21.5657 18.1838 21.5994 17.9703 21.487C17.3634 21.1723 17.768 20.3857 18.3411 20.3857C18.6333 20.3857 18.9255 20.3857 19.229 20.3857C22.3869 20.3857 25.5336 20.3857 28.6915 20.3857C30.793 20.3857 32.8945 20.3857 35.0073 20.3857C35.5355 20.3857 36.0637 20.3857 36.5919 20.3857C36.738 20.3857 36.8504 20.3857 36.9965 20.4306C37.6258 20.6104 37.3111 21.532 36.738 21.5657C35.6591 21.6219 35.6479 23.3076 36.738 23.2514C38.2551 23.1727 39.1879 21.9141 38.9519 20.4419C38.7833 19.3967 37.6932 18.6999 36.693 18.6999C35.8727 18.6999 35.0523 18.6999 34.2431 18.6999C30.7705 18.6999 27.2979 18.6999 23.8366 18.6999C22.4094 18.6999 20.9821 18.6999 19.5661 18.6999C18.521 18.6999 17.5882 18.5988 16.7116 19.318C15.599 20.2283 15.8575 22.1163 16.9926 22.8581C17.4646 23.1615 17.9703 23.2514 18.5097 23.2514C19.5436 23.2514 20.5663 23.2514 21.6002 23.2514C26.6461 23.2514 31.6921 23.2514 36.738 23.2514C37.8281 23.2514 37.8281 21.5657 36.738 21.5657Z" fill="#F5A35A"/>
</g>
<defs>
<clipPath id="clip0_74_700">
<rect width="55" height="55" fill="white"/>
</clipPath>
</defs>
</svg>
