<svg width="55" height="55" viewBox="0 0 55 55" fill="none" xmlns="http://www.w3.org/2000/svg">
<g clip-path="url(#clip0_74_32)">
<path d="M54.3523 47.956C50.896 47.956 47.4286 47.956 43.9723 47.956C36.8347 47.956 29.6858 47.956 22.5482 47.956C16.5814 47.956 10.6259 47.956 4.65912 47.956C3.63463 47.956 2.61015 47.956 1.59692 47.956C1.87837 48.2375 2.15982 48.5189 2.44128 48.8004C2.44128 43.6104 2.44128 38.4204 2.44128 33.2305C2.44128 29.1663 2.44128 25.1021 2.44128 21.038C2.15982 21.3194 1.87837 21.6009 1.59692 21.8823C5.05315 21.8823 8.52064 21.8823 11.9769 21.8823C19.1145 21.8823 26.2634 21.8823 33.401 21.8823C39.3678 21.8823 45.3233 21.8823 51.2901 21.8823C52.3146 21.8823 53.339 21.8823 54.3523 21.8823C54.0708 21.6009 53.7894 21.3194 53.5079 21.038C53.5079 26.2279 53.5079 31.4179 53.5079 36.6079C53.5079 40.672 53.5079 44.7362 53.5079 48.8004C53.5079 49.8924 55.1966 49.8924 55.1966 48.8004C55.1966 43.6104 55.1966 38.4204 55.1966 33.2305C55.1966 29.1663 55.1966 25.1021 55.1966 21.038C55.1966 20.5764 54.8139 20.1936 54.3523 20.1936C50.896 20.1936 47.4286 20.1936 43.9723 20.1936C36.8347 20.1936 29.6858 20.1936 22.5482 20.1936C16.5814 20.1936 10.6259 20.1936 4.65912 20.1936C3.63463 20.1936 2.61015 20.1936 1.59692 20.1936C1.13534 20.1936 0.752563 20.5764 0.752563 21.038C0.752563 26.2279 0.752563 31.4179 0.752563 36.6079C0.752563 40.672 0.752563 44.7362 0.752563 48.8004C0.752563 49.262 1.13534 49.6447 1.59692 49.6447C5.05315 49.6447 8.52064 49.6447 11.9769 49.6447C19.1145 49.6447 26.2634 49.6447 33.401 49.6447C39.3678 49.6447 45.3233 49.6447 51.2901 49.6447C52.3146 49.6447 53.339 49.6447 54.3523 49.6447C55.4443 49.6447 55.4443 47.956 54.3523 47.956Z" fill="#F5A35A"/>
<path d="M54.3523 47.956C50.896 47.956 47.4286 47.956 43.9723 47.956C36.8347 47.956 29.6858 47.956 22.5482 47.956C16.5814 47.956 10.6259 47.956 4.65912 47.956C3.63463 47.956 2.61015 47.956 1.59692 47.956C1.87837 48.2375 2.15982 48.519 2.44128 48.8004C2.44128 43.1939 2.44128 37.5761 2.44128 31.9696C2.44128 31.249 2.44128 30.5398 2.44128 29.8193C2.15982 30.1007 1.87837 30.3822 1.59692 30.6636C5.05315 30.6636 8.52064 30.6636 11.9769 30.6636C19.1145 30.6636 26.2634 30.6636 33.401 30.6636C39.3678 30.6636 45.3233 30.6636 51.2901 30.6636C52.3146 30.6636 53.339 30.6636 54.3523 30.6636C54.0708 30.3822 53.7894 30.1007 53.5079 29.8193C53.5079 35.4258 53.5079 41.0436 53.5079 46.6501C53.5079 47.3706 53.5079 48.0799 53.5079 48.8004C53.5079 49.8924 55.1966 49.8924 55.1966 48.8004C55.1966 43.1939 55.1966 37.5761 55.1966 31.9696C55.1966 31.249 55.1966 30.5398 55.1966 29.8193C55.1966 29.3577 54.8139 28.9749 54.3523 28.9749C50.896 28.9749 47.4286 28.9749 43.9723 28.9749C36.8347 28.9749 29.6858 28.9749 22.5482 28.9749C16.5814 28.9749 10.6259 28.9749 4.65912 28.9749C3.63463 28.9749 2.61015 28.9749 1.59692 28.9749C1.13534 28.9749 0.752563 29.3577 0.752563 29.8193C0.752563 35.4258 0.752563 41.0436 0.752563 46.6501C0.752563 47.3706 0.752563 48.0799 0.752563 48.8004C0.752563 49.262 1.13534 49.6448 1.59692 49.6448C5.05315 49.6448 8.52064 49.6448 11.9769 49.6448C19.1145 49.6448 26.2634 49.6448 33.401 49.6448C39.3678 49.6448 45.3233 49.6448 51.2901 49.6448C52.3146 49.6448 53.339 49.6448 54.3523 49.6448C55.4443 49.6448 55.4443 47.956 54.3523 47.956Z" fill="#F5A35A"/>
<path d="M17.6397 21.038C17.6397 26.2279 17.6397 31.4179 17.6397 36.6079C17.6397 40.6721 17.6397 44.7362 17.6397 48.8004C17.6397 49.8924 19.3284 49.8924 19.3284 48.8004C19.3284 43.6104 19.3284 38.4205 19.3284 33.2305C19.3284 29.1663 19.3284 25.1021 19.3284 21.038C19.3284 19.9459 17.6397 19.9459 17.6397 21.038Z" fill="#F5A35A"/>
<path d="M54.3523 47.956C49.8265 47.956 45.3008 47.956 40.7638 47.956C34.1891 47.956 27.6031 47.956 21.0284 47.956C20.1727 47.956 19.3284 47.956 18.4728 47.956C18.7542 48.2375 19.0357 48.519 19.3171 48.8004C19.3171 43.1939 19.3171 37.5761 19.3171 31.9696C19.3171 31.249 19.3171 30.5398 19.3171 29.8193C19.0357 30.1007 18.7542 30.3822 18.4728 30.6636C22.9985 30.6636 27.5243 30.6636 32.0613 30.6636C38.636 30.6636 45.222 30.6636 51.7967 30.6636C52.6523 30.6636 53.4967 30.6636 54.3523 30.6636C54.0708 30.3822 53.7894 30.1007 53.5079 29.8193C53.5079 35.4258 53.5079 41.0436 53.5079 46.6501C53.5079 47.3706 53.5079 48.0799 53.5079 48.8004C53.5079 49.8924 55.1967 49.8924 55.1967 48.8004C55.1967 43.1939 55.1967 37.5761 55.1967 31.9696C55.1967 31.249 55.1967 30.5398 55.1967 29.8193C55.1967 29.3577 54.8139 28.9749 54.3523 28.9749C49.8265 28.9749 45.3008 28.9749 40.7638 28.9749C34.1891 28.9749 27.6031 28.9749 21.0284 28.9749C20.1727 28.9749 19.3284 28.9749 18.4728 28.9749C18.0112 28.9749 17.6284 29.3577 17.6284 29.8193C17.6284 35.4258 17.6284 41.0436 17.6284 46.6501C17.6284 47.3706 17.6284 48.0799 17.6284 48.8004C17.6284 49.262 18.0112 49.6448 18.4728 49.6448C22.9985 49.6448 27.5243 49.6448 32.0613 49.6448C38.636 49.6448 45.222 49.6448 51.7967 49.6448C52.6523 49.6448 53.4967 49.6448 54.3523 49.6448C55.4443 49.6448 55.4443 47.956 54.3523 47.956Z" fill="#F5A35A"/>
<path d="M35.5738 29.8193C35.5738 35.4258 35.5738 41.0436 35.5738 46.6501C35.5738 47.3706 35.5738 48.0799 35.5738 48.8004C35.5738 49.8924 37.2625 49.8924 37.2625 48.8004C37.2625 43.1939 37.2625 37.5761 37.2625 31.9696C37.2625 31.249 37.2625 30.5398 37.2625 29.8193C37.2625 28.7272 35.5738 28.7272 35.5738 29.8193Z" fill="#F5A35A"/>
<path d="M33.9752 26.363C35.6076 26.363 37.24 26.363 38.8724 26.363C39.9645 26.363 39.9645 24.6743 38.8724 24.6743C37.24 24.6743 35.6076 24.6743 33.9752 24.6743C32.8831 24.6743 32.8831 26.363 33.9752 26.363Z" fill="#F5A35A"/>
<path d="M54.3523 28.9749C49.8265 28.9749 45.3008 28.9749 40.7638 28.9749C34.1891 28.9749 27.6031 28.9749 21.0284 28.9749C20.1727 28.9749 19.3284 28.9749 18.4728 28.9749C18.7542 29.2564 19.0357 29.5378 19.3171 29.8193C19.3171 26.8922 19.3171 23.9651 19.3171 21.038C19.0357 21.3194 18.7542 21.6009 18.4728 21.8823C22.9985 21.8823 27.5243 21.8823 32.0613 21.8823C38.636 21.8823 45.222 21.8823 51.7967 21.8823C52.6523 21.8823 53.4967 21.8823 54.3523 21.8823C54.0708 21.6009 53.7894 21.3194 53.5079 21.038C53.5079 23.9651 53.5079 26.8922 53.5079 29.8193C53.5079 30.9113 55.1967 30.9113 55.1967 29.8193C55.1967 26.8922 55.1967 23.9651 55.1967 21.038C55.1967 20.5764 54.8139 20.1936 54.3523 20.1936C49.8265 20.1936 45.3008 20.1936 40.7638 20.1936C34.1891 20.1936 27.6031 20.1936 21.0284 20.1936C20.1727 20.1936 19.3284 20.1936 18.4728 20.1936C18.0112 20.1936 17.6284 20.5764 17.6284 21.038C17.6284 23.9651 17.6284 26.8922 17.6284 29.8193C17.6284 30.2808 18.0112 30.6636 18.4728 30.6636C22.9985 30.6636 27.5243 30.6636 32.0613 30.6636C38.636 30.6636 45.222 30.6636 51.7967 30.6636C52.6523 30.6636 53.4967 30.6636 54.3523 30.6636C55.4443 30.6636 55.4443 28.9749 54.3523 28.9749Z" fill="#F5A35A"/>
<path d="M15.2867 44.8601C11.7855 44.8601 8.29548 44.8601 4.79422 44.8601C5.07567 45.1415 5.35712 45.423 5.63857 45.7044C5.63857 41.4376 5.63857 37.182 5.63857 32.9152C5.35712 33.1967 5.07567 33.4781 4.79422 33.7596C8.29548 33.7596 11.7855 33.7596 15.2867 33.7596C15.0053 33.4781 14.7238 33.1967 14.4424 32.9152C14.4424 37.182 14.4424 41.4376 14.4424 45.7044C14.4424 46.7964 16.1311 46.7964 16.1311 45.7044C16.1311 41.4376 16.1311 37.182 16.1311 32.9152C16.1311 32.4536 15.7483 32.0709 15.2867 32.0709C11.7855 32.0709 8.29548 32.0709 4.79422 32.0709C4.33263 32.0709 3.94986 32.4536 3.94986 32.9152C3.94986 37.182 3.94986 41.4376 3.94986 45.7044C3.94986 46.166 4.33263 46.5488 4.79422 46.5488C8.29548 46.5488 11.7855 46.5488 15.2867 46.5488C16.3675 46.5488 16.3675 44.8601 15.2867 44.8601Z" fill="#F5A35A"/>
<path d="M18.484 47.956C13.0576 47.956 7.64251 47.956 2.21611 47.956C2.01347 47.956 1.79957 47.956 1.59692 47.956C1.87837 48.2375 2.15982 48.519 2.44128 48.8004C2.44128 43.1939 2.44128 37.5761 2.44128 31.9696C2.44128 31.249 2.44128 30.5398 2.44128 29.8193C2.15982 30.1007 1.87837 30.3822 1.59692 30.6636C7.02332 30.6636 12.4385 30.6636 17.8649 30.6636C18.0675 30.6636 18.2814 30.6636 18.484 30.6636C18.2026 30.3822 17.9211 30.1007 17.6397 29.8193C17.6397 35.4258 17.6397 41.0436 17.6397 46.6501C17.6397 47.3706 17.6397 48.0799 17.6397 48.8004C17.6397 49.8924 19.3284 49.8924 19.3284 48.8004C19.3284 43.1939 19.3284 37.5761 19.3284 31.9696C19.3284 31.249 19.3284 30.5398 19.3284 29.8193C19.3284 29.3577 18.9456 28.9749 18.484 28.9749C13.0576 28.9749 7.64251 28.9749 2.21611 28.9749C2.01347 28.9749 1.79957 28.9749 1.59692 28.9749C1.13534 28.9749 0.752563 29.3577 0.752563 29.8193C0.752563 35.4258 0.752563 41.0436 0.752563 46.6501C0.752563 47.3706 0.752563 48.0799 0.752563 48.8004C0.752563 49.262 1.13534 49.6448 1.59692 49.6448C7.02332 49.6448 12.4385 49.6448 17.8649 49.6448C18.0675 49.6448 18.2814 49.6448 18.484 49.6448C19.5761 49.6448 19.5761 47.956 18.484 47.956Z" fill="#F5A35A"/>
<path d="M33.2996 41.7641C33.2996 40.1317 33.2996 38.4992 33.2996 36.8668C33.2996 35.7748 31.6109 35.7748 31.6109 36.8668C31.6109 38.4992 31.6109 40.1317 31.6109 41.7641C31.6109 42.8449 33.2996 42.8449 33.2996 41.7641Z" fill="#F5A35A"/>
<path d="M41.2254 41.7641C41.2254 40.1317 41.2254 38.4992 41.2254 36.8668C41.2254 35.7748 39.5367 35.7748 39.5367 36.8668C39.5367 38.4992 39.5367 40.1317 39.5367 41.7641C39.5367 42.8449 41.2254 42.8449 41.2254 41.7641Z" fill="#F5A35A"/>
<path d="M7.49615 25.5187C7.43986 26.8359 5.51473 26.8359 5.45843 25.5187C5.4134 24.2128 7.45112 24.2128 7.49615 25.5187C7.54118 26.5995 9.22989 26.6108 9.18486 25.5187C9.12857 23.9989 7.9915 22.8731 6.48292 22.8168C4.97434 22.7605 3.83727 24.1002 3.78098 25.5187C3.72469 27.0273 5.0644 28.1644 6.48292 28.2207C7.9915 28.2769 9.12857 26.9372 9.18486 25.5187C9.22989 24.4379 7.54118 24.4379 7.49615 25.5187Z" fill="#F5A35A"/>
<path d="M14.6113 25.5187C14.555 26.8359 12.6298 26.8359 12.5735 25.5187C12.5173 24.2128 14.555 24.2128 14.6113 25.5187C14.6563 26.5995 16.345 26.6108 16.3 25.5187C16.2437 23.9989 15.1066 22.8731 13.598 22.8168C12.0894 22.7605 10.9524 24.1002 10.8961 25.5187C10.8398 27.0273 12.1795 28.1644 13.598 28.2207C15.1066 28.2769 16.2437 26.9372 16.3 25.5187C16.345 24.4379 14.6563 24.4379 14.6113 25.5187Z" fill="#F5A35A"/>
<path d="M4.13001 19.7883C4.42272 20.3512 4.71544 20.9141 5.00815 21.4658C5.14324 21.7247 5.44721 21.8823 5.73992 21.8823C8.59948 21.8823 11.4703 21.8823 14.3298 21.8823C14.6113 21.8823 14.9265 21.7247 15.0616 21.4658C15.8047 20.0585 16.6265 18.7076 16.6265 17.0526C16.6265 15.9944 16.6265 14.9474 16.6265 13.8891C16.6265 13.4275 16.2437 13.0447 15.7821 13.0447C11.9431 13.0447 8.11538 13.0447 4.27637 13.0447C3.81479 13.0447 3.43201 13.4275 3.43201 13.8891C3.44327 15.8818 3.20685 17.9533 4.13001 19.7883C4.61411 20.7678 6.07766 19.9122 5.59357 18.9327C5.13198 18.0096 5.13198 17.0751 5.13198 16.0732C5.13198 15.3414 5.13198 14.6209 5.13198 13.8891C4.85053 14.1705 4.56908 14.452 4.28763 14.7335C8.12664 14.7335 11.9544 14.7335 15.7934 14.7335C15.5119 14.452 15.2305 14.1705 14.949 13.8891C14.949 14.9248 14.949 15.9493 14.949 16.9851C14.949 18.3473 14.2173 19.4506 13.6093 20.6102C13.857 20.4751 14.0934 20.3287 14.3411 20.1936C11.4815 20.1936 8.61073 20.1936 5.75118 20.1936C5.99886 20.3287 6.23528 20.4751 6.48295 20.6102C6.19024 20.0473 5.89753 19.4844 5.60482 18.9327C5.07569 17.9645 3.6234 18.8201 4.13001 19.7883Z" fill="#F5A35A"/>
<path d="M18.484 14.8573C17.5834 14.8573 16.694 14.8573 15.7934 14.8573C14.7013 14.8573 14.7013 16.546 15.7934 16.546C16.694 16.546 17.5834 16.546 18.484 16.546C19.5761 16.546 19.5761 14.8573 18.484 14.8573Z" fill="#F5A35A"/>
<path d="M4.2876 14.8573C3.38695 14.8573 2.49756 14.8573 1.59692 14.8573C0.504885 14.8573 0.504885 16.546 1.59692 16.546C2.49756 16.546 3.38695 16.546 4.2876 16.546C5.37963 16.546 5.37963 14.8573 4.2876 14.8573Z" fill="#F5A35A"/>
<path d="M32.1851 9.29583C37.7579 9.29583 43.3419 9.29583 48.9147 9.29583C50.7159 9.29583 52.5172 9.29583 54.3185 9.29583C55.4106 9.29583 55.4106 7.60712 54.3185 7.60712C48.7458 7.60712 43.1618 7.60712 37.589 7.60712C35.7877 7.60712 33.9864 7.60712 32.1851 7.60712C31.0931 7.60712 31.0931 9.29583 32.1851 9.29583Z" fill="#F5A35A"/>
<path d="M41.293 13.8441C41.293 11.5362 41.293 9.22828 41.293 6.93164C41.293 5.8396 39.6042 5.8396 39.6042 6.93164C39.6042 9.23954 39.6042 11.5474 39.6042 13.8441C39.6042 14.9361 41.293 14.9361 41.293 13.8441Z" fill="#F5A35A"/>
<path d="M41.4731 15.7016C41.4168 17.0188 39.4917 17.0188 39.4354 15.7016C39.3791 14.3957 41.4168 14.3957 41.4731 15.7016C41.5181 16.7824 43.2068 16.7937 43.1618 15.7016C43.1055 14.1818 41.9684 13.056 40.4598 12.9997C38.9513 12.9434 37.8142 14.2831 37.7579 15.7016C37.7016 17.2102 39.0413 18.3473 40.4598 18.4036C41.9684 18.4599 43.1055 17.1202 43.1618 15.7016C43.1956 14.6209 41.5069 14.6209 41.4731 15.7016Z" fill="#F5A35A"/>
<path d="M51.5153 13.7428C51.5153 11.4348 51.5153 9.12693 51.5153 6.81903C51.5153 5.72699 49.8265 5.72699 49.8265 6.81903C49.8265 9.12693 49.8265 11.4348 49.8265 13.7428C49.8265 14.8348 51.5153 14.8348 51.5153 13.7428Z" fill="#F5A35A"/>
<path d="M51.6954 15.6003C51.6391 16.9175 49.714 16.9175 49.6577 15.6003C49.6014 14.2944 51.6391 14.2944 51.6954 15.6003C51.7404 16.6811 53.4291 16.6924 53.3841 15.6003C53.3278 14.0805 52.1908 12.9547 50.6822 12.8984C49.1736 12.8421 48.0365 14.1818 47.9802 15.6003C47.9239 17.1089 49.2637 18.246 50.6822 18.3023C52.1908 18.3586 53.3278 17.0188 53.3841 15.6003C53.4179 14.5195 51.7292 14.5195 51.6954 15.6003Z" fill="#F5A35A"/>
</g>
<defs>
<clipPath id="clip0_74_32">
<rect width="55" height="55" fill="white"/>
</clipPath>
</defs>
</svg>
