<svg width="55" height="55" viewBox="0 0 55 55" fill="none" xmlns="http://www.w3.org/2000/svg">
<g clip-path="url(#clip0_74_155)">
<path d="M36.4592 32.1642C39.4721 32.1642 41.7897 35.1267 41.7897 38.7945V51.7731C41.7897 51.9141 41.6738 52.0552 41.5579 52.0552H1.23176C1.11588 52.0552 1 51.9141 1 51.7731V38.7945C1 35.1267 3.43348 32.1642 6.33047 32.1642V45.2838H36.3434V32.1642H36.4592Z" stroke="#F5A35A" stroke-width="2" stroke-miterlimit="10"/>
<path d="M5.98282 30.0481C5.98282 26.3803 8.41629 23.2767 11.545 23.2767H31.4764C34.4893 23.2767 37.0386 26.2392 37.0386 30.0481" stroke="#F5A35A" stroke-width="2" stroke-miterlimit="10"/>
<path d="M8.9957 39.0767H33.6781" stroke="#F5A35A" stroke-width="2" stroke-miterlimit="10"/>
<path d="M11.8927 28.9196H13.8626" stroke="#F5A35A" stroke-width="2" stroke-miterlimit="10"/>
<path d="M17.5708 28.9196H19.6567" stroke="#F5A35A" stroke-width="2" stroke-miterlimit="10"/>
<path d="M23.3648 28.9196H25.3347" stroke="#F5A35A" stroke-width="2" stroke-miterlimit="10"/>
<path d="M29.0429 28.9196H31.1287" stroke="#F5A35A" stroke-width="2" stroke-miterlimit="10"/>
<path d="M11.8927 34.4214H13.8626" stroke="#F5A35A" stroke-width="2" stroke-miterlimit="10"/>
<path d="M17.5708 34.4214H19.6567" stroke="#F5A35A" stroke-width="2" stroke-miterlimit="10"/>
<path d="M23.3648 34.4214H25.3347" stroke="#F5A35A" stroke-width="2" stroke-miterlimit="10"/>
<path d="M29.0429 34.4214H31.1287" stroke="#F5A35A" stroke-width="2" stroke-miterlimit="10"/>
<path d="M5.98282 51.9142V55.8642" stroke="#F5A35A" stroke-width="2" stroke-miterlimit="10"/>
<path d="M35.7639 51.9142V55.8642" stroke="#F5A35A" stroke-width="2" stroke-miterlimit="10"/>
<path d="M51.8713 15.3768H31.824C31.7082 15.3768 31.5923 15.2357 31.5923 15.0946V0.282142C31.5923 0.141071 31.7082 0 31.824 0H51.8713C51.9871 0 52.103 0.141071 52.103 0.282142V15.2357C52.103 15.3768 51.9871 15.3768 51.8713 15.3768Z" stroke="#F5A35A" stroke-width="2" stroke-miterlimit="10"/>
<path d="M48.9742 10.2982H35.8798V2.82141" stroke="#F5A35A" stroke-width="2" stroke-miterlimit="10"/>
<path d="M44.455 43.7321H55.0001" stroke="#F5A35A" stroke-width="2" stroke-miterlimit="10"/>
<path d="M49.7855 43.7321V55.8642" stroke="#F5A35A" stroke-width="2" stroke-miterlimit="10"/>
<path d="M47.5837 38.3713V42.4624" stroke="#F5A35A" stroke-width="2" stroke-miterlimit="10"/>
<path d="M51.176 40.4874V42.4624" stroke="#F5A35A" stroke-width="2" stroke-miterlimit="10"/>
<path d="M1.11584 13.9661H27.1888" stroke="#F5A35A" stroke-width="2" stroke-miterlimit="10"/>
<path d="M5.63519 2.25708V13.966" stroke="#F5A35A" stroke-width="2" stroke-miterlimit="10"/>
<path d="M9.22745 2.25708V13.966" stroke="#F5A35A" stroke-width="2" stroke-miterlimit="10"/>
<path d="M12.8198 4.6554V13.9661" stroke="#F5A35A" stroke-width="2" stroke-miterlimit="10"/>
<path d="M16.412 2.25708V13.966" stroke="#F5A35A" stroke-width="2" stroke-miterlimit="10"/>
<path d="M17.5708 4.09106L24.4077 12.1321" stroke="#F5A35A" stroke-width="2" stroke-miterlimit="10"/>
</g>
<defs>
<clipPath id="clip0_74_155">
<rect width="55" height="55" fill="white"/>
</clipPath>
</defs>
</svg>
